<svg width="100" height="100" viewBox="0 0 100 100" fill="none" xmlns="http://www.w3.org/2000/svg">
<path d="M17.7083 8.06015e-06H82.2917C84.6178 -0.00224053 86.9215 0.466009 89.0709 1.37796C91.2204 2.28991 93.1734 3.62765 94.8182 5.31463C96.463 7.00162 97.7673 9.00471 98.6565 11.2093C99.5456 13.4139 100.002 15.7766 100 18.1624V81.8376C100.002 84.2234 99.5456 86.5861 98.6565 88.7907C97.7673 90.9953 96.463 92.9984 94.8182 94.6854C93.1734 96.3723 91.2204 97.7101 89.0709 98.622C86.9215 99.534 84.6178 100.002 82.2917 100H17.7083C15.3822 100.002 13.0785 99.534 10.9291 98.622C8.7796 97.7101 6.82658 96.3723 5.18177 94.6854C3.53696 92.9984 2.23266 90.9953 1.34351 88.7907C0.454359 86.5861 -0.00218452 84.2234 7.85865e-06 81.8376V18.1624C-0.00218452 15.7766 0.454359 13.4139 1.34351 11.2093C2.23266 9.00471 3.53696 7.00162 5.18177 5.31463C6.82658 3.62765 8.7796 2.28991 10.9291 1.37796C13.0785 0.466009 15.3822 -0.00224053 17.7083 8.06015e-06Z" fill="#F0F0F0"/>
<path d="M86.0859 46.6595L53.3383 13.9145C51.454 12.0285 48.3955 12.0285 46.5089 13.9145L39.7092 20.7151L48.3344 29.3407C50.3396 28.6636 52.6379 29.1176 54.2355 30.7155C55.8413 32.3235 56.292 34.6415 55.598 36.6534L63.9112 44.9669C65.9224 44.2738 68.2429 44.7216 69.8488 46.3305C72.0941 48.5751 72.0941 52.2124 69.8488 54.4576C67.6033 56.7036 63.9662 56.7036 61.7193 54.4576C60.0311 52.768 59.6135 50.2874 60.4686 48.2072L52.7157 40.454L52.715 60.8566C53.2624 61.1275 53.779 61.4892 54.2351 61.9434C56.4797 64.1878 56.4797 67.8244 54.2351 70.0726C51.9899 72.3169 48.3512 72.3169 46.1083 70.0726C43.8634 67.8246 43.8634 64.188 46.1083 61.9434C46.6631 61.3896 47.305 60.9704 47.99 60.6894V40.0973C47.3047 39.8175 46.6635 39.4014 46.1079 38.8431C44.4075 37.1439 43.9979 34.6482 44.87 32.56L36.3673 24.0556L13.9149 46.5082C12.0284 48.3957 12.0284 51.4543 13.9149 53.3404L46.6606 86.0855C48.5459 87.9715 51.6033 87.9715 53.4912 86.0855L86.0855 53.4951C87.9715 51.6082 87.9715 48.5487 86.0855 46.6623" fill="#F05133"/>
</svg>
