<svg width="100" height="98" viewBox="0 0 100 98" fill="none" xmlns="http://www.w3.org/2000/svg">
<g clip-path="url(#clip0_38_173)">
<path d="M17.7083 7.85865e-06H82.2917C84.6178 -0.00218452 86.9215 0.454359 89.071 1.34351C91.2204 2.23266 93.1734 3.53696 94.8183 5.18177C96.4631 6.82658 97.7674 8.7796 98.6565 10.9291C99.5457 13.0785 100.002 15.3822 100 17.7083V79.7917C100.002 82.1178 99.5457 84.4215 98.6565 86.571C97.7674 88.7204 96.4631 90.6734 94.8183 92.3183C93.1734 93.9631 91.2204 95.2674 89.071 96.1565C86.9215 97.0457 84.6178 97.5022 82.2917 97.5H17.7083C15.3822 97.5022 13.0785 97.0457 10.9291 96.1565C8.7796 95.2674 6.82658 93.9631 5.18177 92.3183C3.53696 90.6734 2.23266 88.7204 1.34351 86.571C0.454359 84.4215 -0.00218452 82.1178 7.85865e-06 79.7917V17.7083C-0.00218452 15.3822 0.454359 13.0785 1.34351 10.9291C2.23266 8.7796 3.53696 6.82658 5.18177 5.18177C6.82658 3.53696 8.7796 2.23266 10.9291 1.34351C13.0785 0.454359 15.3822 -0.00218452 17.7083 7.85865e-06Z" fill="#000B1D"/>
<path d="M39.5837 80.0001C45.3366 80.0001 50.0003 75.3364 50.0003 69.5834V59.1667H39.5837C33.8307 59.1667 29.167 63.8304 29.167 69.5834C29.167 75.3364 33.8307 80.0001 39.5837 80.0001Z" fill="#0ACF83"/>
<path d="M29.167 48.7499C29.167 42.997 33.8307 38.3333 39.5837 38.3333H50.0003V59.1666H39.5837C33.8307 59.1666 29.167 54.5029 29.167 48.7499Z" fill="#A259FF"/>
<path d="M29.167 27.9167C29.167 22.1637 33.8307 17.5 39.5837 17.5H50.0003V38.3333H39.5837C33.8307 38.3333 29.167 33.6696 29.167 27.9167Z" fill="#F24E1E"/>
<path d="M50.0005 17.5H60.4172C66.1701 17.5 70.8338 22.1637 70.8338 27.9167C70.8338 33.6696 66.1701 38.3333 60.4172 38.3333H50.0005V17.5Z" fill="#FF7262"/>
<path d="M70.8338 48.7499C70.8338 54.5029 66.1701 59.1666 60.4172 59.1666C54.6642 59.1666 50.0005 54.5029 50.0005 48.7499C50.0005 42.997 54.6642 38.3333 60.4172 38.3333C66.1701 38.3333 70.8338 42.997 70.8338 48.7499Z" fill="#1ABCFE"/>
</g>
<defs>
<clipPath id="clip0_38_173">
<rect width="100" height="97.5" fill="white"/>
</clipPath>
</defs>
</svg>
