<svg width="100" height="100" viewBox="0 0 100 100" fill="none" xmlns="http://www.w3.org/2000/svg">
<g clip-path="url(#clip0_38_220)">
<path d="M17.7083 8.06015e-06H82.2917C84.6178 -0.00224053 86.9215 0.466009 89.0709 1.37796C91.2204 2.28991 93.1734 3.62765 94.8182 5.31463C96.463 7.00162 97.7673 9.00471 98.6565 11.2093C99.5456 13.4139 100.002 15.7766 100 18.1624V81.8376C100.002 84.2234 99.5456 86.5861 98.6565 88.7907C97.7673 90.9953 96.463 92.9984 94.8182 94.6854C93.1734 96.3723 91.2204 97.7101 89.0709 98.622C86.9215 99.534 84.6178 100.002 82.2917 100H17.7083C15.3822 100.002 13.0785 99.534 10.9291 98.622C8.7796 97.7101 6.82658 96.3723 5.18177 94.6854C3.53696 92.9984 2.23266 90.9953 1.34351 88.7907C0.454359 86.5861 -0.00218452 84.2234 7.85865e-06 81.8376V18.1624C-0.00218452 15.7766 0.454359 13.4139 1.34351 11.2093C2.23266 9.00471 3.53696 7.00162 5.18177 5.31463C6.82658 3.62765 8.7796 2.28991 10.9291 1.37796C13.0785 0.466009 15.3822 -0.00224053 17.7083 8.06015e-06Z" fill="#000B1D"/>
<g clip-path="url(#clip1_38_220)">
<path d="M77.4005 54.5492C74.7506 54.5632 72.4476 55.2074 70.5191 56.1597C69.8116 54.7453 69.104 53.4849 68.9792 52.5607C68.8404 51.4824 68.6739 50.8242 68.8404 49.5358C69.0069 48.2475 69.7561 46.413 69.7422 46.2729C69.7283 46.1329 69.5757 45.4747 68.0496 45.4607C66.5235 45.4467 65.2055 45.7548 65.0529 46.1609C64.9003 46.567 64.609 47.4913 64.4147 48.4435C64.1511 49.8439 61.3625 54.8433 59.767 57.462C59.2537 56.4398 58.8098 55.5435 58.7126 54.8293C58.5739 53.751 58.4074 53.0928 58.5739 51.8045C58.7404 50.5161 59.4896 48.6816 59.4757 48.5416C59.4618 48.4015 59.3092 47.7433 57.7831 47.7293C56.257 47.7153 54.939 48.0234 54.7864 48.4295C54.6338 48.8356 54.4673 49.7879 54.1482 50.7122C53.8291 51.6364 50.1248 59.9827 49.1537 62.1393C48.6542 63.2456 48.2241 64.1279 47.9189 64.7301C47.9189 64.7301 47.9051 64.7721 47.8634 64.8421C47.5998 65.3602 47.4472 65.6403 47.4472 65.6403C47.4472 65.6403 47.4472 65.6403 47.4472 65.6543C47.2391 66.0324 47.0171 66.3825 46.9061 66.3825C46.8229 66.3825 46.6703 65.3742 46.9339 64.0019C47.4888 61.1031 48.8068 56.5938 48.793 56.4398C48.793 56.3557 49.0427 55.5715 47.9328 55.1654C46.8507 54.7593 46.4622 55.4315 46.3651 55.4315C46.268 55.4315 46.1986 55.6695 46.1986 55.6695C46.1986 55.6695 47.4056 50.6001 43.8956 50.6001C41.7035 50.6001 38.6791 53.0228 37.1807 55.2074C36.2373 55.7256 34.2256 56.8319 32.0752 58.0222C31.2566 58.4843 30.4103 58.9464 29.6195 59.3806C29.5641 59.3246 29.5086 59.2545 29.4531 59.1985C25.2077 54.6192 17.3552 51.3843 17.6882 45.2366C17.813 42.996 18.5761 37.1144 32.7689 29.9724C44.4505 24.1608 53.7459 25.7712 55.3552 29.3422C57.6582 34.4396 50.3746 43.9063 38.3045 45.2787C33.6984 45.7968 31.2844 44.0043 30.6739 43.3321C30.0358 42.6319 29.9386 42.5899 29.7028 42.7299C29.3143 42.94 29.5641 43.5702 29.7028 43.9343C30.0635 44.8865 31.548 46.567 34.0591 47.3932C36.2789 48.1214 41.6758 48.5276 48.2103 45.9788C55.5217 43.122 61.2377 35.1818 59.5589 28.53C57.8802 21.7801 46.7813 19.5535 36.2789 23.3205C30.0358 25.5612 23.2654 29.0901 18.3957 33.6834C12.6104 39.1449 11.6948 43.8923 12.0693 45.8808C13.4151 52.9388 23.0573 57.5321 26.9142 60.935C26.7199 61.047 26.5396 61.1451 26.387 61.2291C24.4585 62.1954 17.1055 66.0744 15.2742 70.1776C13.1931 74.8269 15.6071 78.1598 17.2026 78.6079C22.1555 79.9943 27.2471 77.5016 29.9803 73.3845C32.7134 69.2673 32.3804 63.9178 31.1179 61.4672C31.104 61.4391 31.0902 61.4111 31.0624 61.3831C31.5619 61.089 32.0752 60.781 32.5746 60.4869C33.5597 59.8987 34.5308 59.3526 35.3632 58.9044C34.8915 60.2068 34.5447 61.7612 34.3782 64.0019C34.1701 66.6346 35.2384 70.0515 36.6396 71.3959C37.2639 71.9841 37.9992 71.9981 38.471 71.9981C40.108 71.9981 40.8433 70.6257 41.6619 69.0013C42.6608 67.0127 43.5626 64.7021 43.5626 64.7021C43.5626 64.7021 42.4388 70.9478 45.491 70.9478C46.6009 70.9478 47.7247 69.4914 48.2241 68.7492C48.2241 68.7632 48.2241 68.7632 48.2241 68.7632C48.2241 68.7632 48.2519 68.7212 48.3074 68.6231C48.4184 68.4411 48.4877 68.3291 48.4877 68.3291C48.4877 68.3291 48.4877 68.3151 48.4877 68.3011C48.9317 67.5168 49.9306 65.7383 51.4151 62.7835C53.3297 58.9745 55.1749 54.2131 55.1749 54.2131C55.1749 54.2131 55.3413 55.3755 55.9102 57.308C56.2431 58.4423 56.9368 59.6887 57.4918 60.893C57.0478 61.5232 56.7703 61.8733 56.7703 61.8733C56.7703 61.8733 56.7703 61.8733 56.7842 61.8873C56.4235 62.3634 56.035 62.8815 55.6049 63.3857C54.0927 65.2062 52.2891 67.2928 52.0394 67.8949C51.7481 68.6091 51.8174 69.1273 52.3724 69.5474C52.7747 69.8555 53.4961 69.8975 54.2314 69.8555C55.5911 69.7575 56.5484 69.4214 57.0201 69.2113C57.7554 68.9452 58.6155 68.5391 59.4202 67.937C60.9047 66.8306 61.8065 65.2482 61.7232 63.1616C61.6816 62.0133 61.307 60.865 60.8492 59.7867C60.9879 59.5906 61.1128 59.3946 61.2515 59.1985C63.5962 55.7396 65.4136 51.9445 65.4136 51.9445C65.4136 51.9445 65.5801 53.1068 66.1489 55.0394C66.4264 56.0196 66.9952 57.0839 67.4947 58.1202C65.2888 59.9267 63.9291 62.0273 63.4436 63.3997C62.5695 65.9484 63.2493 67.0967 64.5396 67.3628C65.1223 67.4888 65.9547 67.2087 66.5651 66.9427C67.3421 66.6906 68.2577 66.2565 69.1318 65.6123C70.6163 64.506 72.0452 62.9656 71.962 60.879C71.9204 59.9267 71.6707 58.9885 71.3238 58.0782C73.1968 57.294 75.6108 56.8599 78.6907 57.224C85.2946 58.0082 86.5987 62.1673 86.349 63.9178C86.0993 65.6683 84.7119 66.6206 84.2541 66.9147C83.7963 67.2087 83.6436 67.3068 83.6853 67.5168C83.7408 67.8249 83.9627 67.8109 84.3512 67.7549C84.8923 67.6569 87.8196 66.3405 87.9445 63.1196C88.1526 59.0025 84.268 54.5072 77.4005 54.5492ZM26.4563 71.886C24.2643 74.2947 21.2121 75.205 19.8941 74.4348C18.479 73.6085 19.0339 70.0515 21.7254 67.5028C23.3625 65.9484 25.4713 64.506 26.8726 63.6237C27.1917 63.4277 27.6634 63.1476 28.2322 62.7975C28.3293 62.7415 28.3848 62.7135 28.3848 62.7135C28.4958 62.6435 28.6068 62.5735 28.7178 62.5034C29.7028 66.1445 28.7594 69.3513 26.4563 71.886ZM42.4111 60.935C41.648 62.8115 40.0525 67.6149 39.0814 67.3488C38.249 67.1247 37.7356 63.4837 38.9149 59.8847C39.5115 58.0782 40.774 55.9216 41.5093 55.0814C42.7024 53.737 44.0204 53.2889 44.3395 53.835C44.7419 54.5492 42.8828 59.7587 42.4111 60.935ZM55.5772 67.2928C55.2581 67.4608 54.9529 67.5728 54.8141 67.4888C54.717 67.4328 54.9529 67.2087 54.9529 67.2087C54.9529 67.2087 56.6038 65.4162 57.2559 64.604C57.6305 64.1279 58.0745 63.5677 58.5462 62.9376C58.5462 62.9936 58.5462 63.0636 58.5462 63.1196C58.5462 65.2622 56.4929 66.7046 55.5772 67.2928ZM65.7327 64.9541C65.4969 64.7861 65.5385 64.2259 66.3293 62.4754C66.6345 61.7892 67.3559 60.6409 68.5907 59.5346C68.7294 59.9827 68.8266 60.4169 68.8127 60.823C68.7988 63.5257 66.8842 64.534 65.7327 64.9541Z" fill="#CD6799"/>
</g>
</g>
<defs>
<clipPath id="clip0_38_220">
<rect width="100" height="100" fill="white"/>
</clipPath>
<clipPath id="clip1_38_220">
<rect width="76" height="57.5" fill="white" transform="translate(12 21.5)"/>
</clipPath>
</defs>
</svg>
