<svg width="100" height="98" viewBox="0 0 100 98" fill="none" xmlns="http://www.w3.org/2000/svg">
<g clip-path="url(#clip0_38_161)">
<path d="M17.7083 7.85865e-06H82.2917C84.6178 -0.00218452 86.9215 0.454359 89.071 1.34351C91.2204 2.23266 93.1734 3.53696 94.8183 5.18177C96.4631 6.82658 97.7674 8.7796 98.6565 10.9291C99.5457 13.0785 100.002 15.3822 100 17.7083V79.7917C100.002 82.1178 99.5457 84.4215 98.6565 86.571C97.7674 88.7204 96.4631 90.6734 94.8183 92.3183C93.1734 93.9631 91.2204 95.2674 89.071 96.1565C86.9215 97.0457 84.6178 97.5022 82.2917 97.5H17.7083C15.3822 97.5022 13.0785 97.0457 10.9291 96.1565C8.7796 95.2674 6.82658 93.9631 5.18177 92.3183C3.53696 90.6734 2.23266 88.7204 1.34351 86.571C0.454359 84.4215 -0.00218452 82.1178 7.85865e-06 79.7917V17.7083C-0.00218452 15.3822 0.454359 13.0785 1.34351 10.9291C2.23266 8.7796 3.53696 6.82658 5.18177 5.18177C6.82658 3.53696 8.7796 2.23266 10.9291 1.34351C13.0785 0.454359 15.3822 -0.00218452 17.7083 7.85865e-06Z" fill="#330000"/>
<path d="M48.4578 58.4999H32.9578L29.7911 68.2916C29.7557 68.4701 29.6549 68.6289 29.5084 68.7368C29.3619 68.8447 29.1804 68.894 28.9994 68.8749H21.1661C20.7078 68.8749 20.5828 68.6249 20.7078 68.1249L34.1244 29.4999C34.2494 29.0833 34.3744 28.6249 34.5411 28.1249C34.7088 27.2319 34.7925 26.3252 34.7911 25.4166C34.7786 25.3122 34.806 25.207 34.8678 25.122C34.9296 25.037 35.0213 24.9785 35.1244 24.9583H45.9161C46.2494 24.9583 46.4161 25.0833 46.4578 25.2916L61.6661 68.2082C61.7911 68.6666 61.6661 68.8749 61.2494 68.8749H52.5411C52.3938 68.8891 52.2462 68.8509 52.1243 68.7671C52.0024 68.6833 51.9139 68.5592 51.8744 68.4166L48.4578 58.4999ZM35.3744 50.0416H45.9578C45.7078 49.1666 45.3744 48.1249 44.9994 47.0416C44.6244 45.9583 44.2494 44.7083 43.8744 43.4583C43.4994 42.2083 43.0828 40.9166 42.6661 39.6249C42.2494 38.3333 41.8744 37.1249 41.5411 35.9166C41.2078 34.7083 40.9161 33.6666 40.6244 32.6666H40.5411C40.1666 34.4826 39.6937 36.2769 39.1244 38.0416C38.4994 40.0416 37.8744 42.1249 37.2078 44.2083C36.6244 46.3333 35.9994 48.2916 35.3744 50.0416Z" fill="#FF9A00"/>
<path d="M70.7492 32.0833C70.0653 32.0982 69.3852 31.977 68.7486 31.7266C68.1119 31.4763 67.5314 31.1018 67.0409 30.6249C66.0863 29.5811 65.5778 28.2053 65.6242 26.7916C65.5996 26.1028 65.7205 25.4165 65.9789 24.7775C66.2374 24.1386 66.6276 23.5613 67.1242 23.0833C68.1257 22.1367 69.4545 21.6141 70.8326 21.6249C72.4576 21.6249 73.7076 22.1249 74.6242 23.0833C75.5473 24.0936 76.0405 25.4237 75.9992 26.7916C76.0246 27.4956 75.9087 28.1975 75.6582 28.8559C75.4077 29.5143 75.0278 30.1158 74.5409 30.6249C74.0499 31.125 73.4574 31.514 72.8033 31.7655C72.1492 32.0171 71.4488 32.1255 70.7492 32.0833ZM66.0826 68.2499V36.1666C66.0826 35.7499 66.2492 35.5833 66.6242 35.5833H74.8742C75.2492 35.5833 75.4159 35.7916 75.4159 36.1666V68.2499C75.4159 68.7083 75.2492 68.9166 74.8742 68.9166H66.7076C66.62 68.9238 66.5319 68.9112 66.4499 68.8796C66.3679 68.848 66.2941 68.7983 66.2341 68.7342C66.174 68.6701 66.1291 68.5933 66.1029 68.5094C66.0767 68.4255 66.0697 68.3368 66.0826 68.2499Z" fill="#FF9A00"/>
</g>
<defs>
<clipPath id="clip0_38_161">
<rect width="100" height="97.5" fill="white"/>
</clipPath>
</defs>
</svg>
