<svg width="100" height="100" viewBox="0 0 100 100" fill="none" xmlns="http://www.w3.org/2000/svg">
<rect width="100" height="100" rx="16.6667" fill="#F0F0F0"/>
<path d="M18.2812 31.439C11.8476 40.6854 12.6485 52.7166 17.5631 62.5423C17.6797 62.778 17.8022 63.0095 17.923 63.2411L18.1528 63.6839L18.2963 63.9388L18.5524 64.3973C18.7052 64.6662 18.8616 64.934 19.0214 65.2017L19.2892 65.6427C19.4665 65.9291 19.6479 66.212 19.8334 66.4944L20.0656 66.8525C20.3217 67.2346 20.5836 67.6161 20.8542 67.9906L20.877 68.0198L21.01 68.1995C21.2439 68.522 21.4848 68.8405 21.7287 69.1555L21.9993 69.4997C22.2169 69.7733 22.438 70.0451 22.6632 70.3158L22.9169 70.6191C23.2196 70.9764 23.5281 71.3287 23.8421 71.6761L23.8613 71.6954L23.8969 71.735C24.2055 72.0699 24.519 72.4003 24.8372 72.7261L25.1388 73.03C25.3856 73.2785 25.6364 73.523 25.8896 73.7662L26.197 74.0579C26.5353 74.377 26.8772 74.6896 27.226 74.9953L27.2423 75.0081L27.4214 75.161C27.7288 75.427 28.0415 75.6912 28.3565 75.9502L28.7438 76.2588C29.0011 76.4653 29.2612 76.6683 29.5232 76.8678L29.9397 77.1845C30.229 77.3975 30.5201 77.6069 30.8141 77.8116L31.1326 78.0374L31.2201 78.0998C31.4989 78.2917 31.7842 78.4766 32.0694 78.6615L32.4369 78.9065C32.8744 79.183 33.3178 79.4566 33.7663 79.7209L34.1338 79.928C34.4634 80.1181 34.7953 80.3048 35.1313 80.4874C35.3133 80.5854 35.5 80.6781 35.6832 80.772C35.9206 80.8963 36.1562 81.0223 36.3977 81.143L36.5628 81.223L36.8551 81.3641C37.229 81.5426 37.6058 81.7182 37.9867 81.8874L38.2259 81.9947C38.6626 82.1857 39.1027 82.3687 39.546 82.5436L39.8674 82.6702C40.2781 82.8283 40.6946 82.9846 41.1128 83.1316L41.2692 83.1859C41.7283 83.3463 42.1914 83.495 42.6581 83.6403L42.9935 83.7406C43.4683 83.8835 43.9379 84.0545 44.4273 84.1449C75.5418 89.819 84.5799 65.4473 84.5799 65.4473C76.989 75.3365 63.5152 77.9452 50.7489 75.0408C50.2653 74.9317 49.7963 74.7806 49.3244 74.6412L48.9692 74.5333C48.5093 74.3923 48.0519 74.2436 47.5972 74.087L47.4087 74.0188C47.0032 73.8754 46.5999 73.7259 46.1989 73.5702L45.8594 73.4366C45.4207 73.2634 44.9844 73.0825 44.5533 72.8935L44.2926 72.778C43.9234 72.6112 43.556 72.4403 43.1907 72.2653L42.8722 72.1125C42.5857 71.973 42.3022 71.8249 42.0199 71.679C41.8309 71.5793 41.6384 71.4854 41.4512 71.3815C41.1074 71.1964 40.7669 71.0055 40.4298 70.8087L40.085 70.6162C39.6372 70.3519 39.1938 70.0802 38.755 69.8013L38.3962 69.5621C38.0772 69.3575 37.7616 69.1477 37.4495 68.9327L37.145 68.7186C36.8444 68.5061 36.5462 68.2905 36.2502 68.0717L35.8541 67.7719C35.5821 67.5652 35.313 67.3548 35.0467 67.1407L34.6868 66.852C34.3478 66.574 34.0125 66.2915 33.6812 66.0044L33.5709 65.9116C33.2139 65.5966 32.8615 65.2763 32.5139 64.9509L32.2158 64.6645C31.9586 64.4195 31.7054 64.1727 31.4563 63.9195L31.1588 63.6226C30.8427 63.2992 30.5319 62.9705 30.2267 62.6368L30.1806 62.5878C29.8589 62.235 29.5436 61.8764 29.235 61.5121L28.9877 61.2181C28.7571 60.9407 28.5301 60.6603 28.3069 60.377L28.0578 60.0666C27.7909 59.7216 27.529 59.3727 27.2721 59.0201C20.1846 49.352 17.6377 36.0181 23.3025 25.0678M38.2527 23.648C33.5995 30.3435 33.8527 39.307 37.4822 46.388C38.0896 47.5784 38.7772 48.7261 39.5402 49.8233C40.2372 50.8225 41.0102 52.0114 41.9353 52.814C42.2736 53.1846 42.6218 53.546 42.9795 53.8979L43.2548 54.1691C43.6023 54.5078 43.9578 54.8381 44.3212 55.1596L44.3643 55.197L44.3748 55.2075C44.7813 55.5614 45.1966 55.9051 45.6203 56.2382L45.9032 56.4587C46.3292 56.7869 46.7635 57.1041 47.2057 57.4101L47.2437 57.4387C47.4397 57.574 47.6392 57.7 47.8381 57.8307L48.1198 58.0168C48.4372 58.2204 48.7586 58.4187 49.0853 58.6089L49.2223 58.6882C49.5041 58.8504 49.7893 59.0102 50.0757 59.1654L50.3797 59.3235C50.5774 59.4267 50.7752 59.5323 50.9764 59.6326L51.0668 59.6735C51.4769 59.8753 51.8905 60.0701 52.3128 60.2539L52.5882 60.367C52.9259 60.5105 53.2672 60.6505 53.609 60.7812L54.0465 60.9416C54.3574 61.0571 54.6695 61.1621 54.9839 61.2677L55.408 61.4036C55.8554 61.5425 56.2976 61.718 56.7637 61.7956C80.7871 65.7757 86.3334 47.2788 86.3334 47.2788C81.3343 54.4789 71.6521 57.9147 61.3207 55.2325C60.8639 55.1124 60.4102 54.9813 59.9598 54.8394L59.5508 54.707C59.2317 54.6037 58.9145 54.4944 58.5994 54.3791L58.1701 54.2193C57.8264 54.0874 57.4849 53.9497 57.1458 53.8063L56.8698 53.6896C56.4474 53.5058 56.0296 53.3115 55.6168 53.1069C55.4051 53.0036 55.1968 52.8945 54.988 52.7872L54.6252 52.6005C54.3575 52.4555 54.0925 52.3057 53.8301 52.1514L53.6399 52.0435C53.315 51.854 52.9939 51.6579 52.6768 51.4555L52.3863 51.2618C52.1771 51.1265 51.9692 50.989 51.7628 50.8494C51.3224 50.5433 50.8894 50.2266 50.4642 49.8997L50.172 49.6693C45.65 46.0993 42.0648 41.2191 40.3609 35.6862C38.5748 29.9485 38.9598 23.5074 42.0543 18.2795M55.0498 17.8275C52.307 21.8641 52.0375 26.8773 53.9409 31.3351C55.9482 36.0677 60.0607 39.7795 64.8609 41.5405C65.0587 41.6135 65.257 41.6788 65.4571 41.747L65.7202 41.8305C66.0031 41.9191 66.2837 42.0224 66.5759 42.0778C79.8409 44.641 83.4389 35.2709 84.3962 33.8913C81.245 38.429 75.9483 39.5181 69.4494 37.9408C68.9361 37.8165 68.372 37.631 67.8773 37.4555C67.2419 37.2297 66.6186 36.9709 66.0101 36.6802C64.8555 36.1243 63.7589 35.4553 62.7364 34.6829C56.9212 30.27 53.3086 21.853 57.1032 14.9983" fill="#0868AC"/>
</svg>
