<svg width="100" height="100" viewBox="0 0 100 100" fill="none" xmlns="http://www.w3.org/2000/svg">
<path d="M17.7083 8.06015e-06H82.2917C84.6178 -0.00224053 86.9215 0.466009 89.0709 1.37796C91.2204 2.28991 93.1734 3.62765 94.8182 5.31463C96.463 7.00162 97.7673 9.00471 98.6565 11.2093C99.5456 13.4139 100.002 15.7766 100 18.1624V81.8376C100.002 84.2234 99.5456 86.5861 98.6565 88.7907C97.7673 90.9953 96.463 92.9984 94.8182 94.6854C93.1734 96.3723 91.2204 97.7101 89.0709 98.622C86.9215 99.534 84.6178 100.002 82.2917 100H17.7083C15.3822 100.002 13.0785 99.534 10.9291 98.622C8.7796 97.7101 6.82658 96.3723 5.18177 94.6854C3.53696 92.9984 2.23266 90.9953 1.34351 88.7907C0.454359 86.5861 -0.00218452 84.2234 7.85865e-06 81.8376V18.1624C-0.00218452 15.7766 0.454359 13.4139 1.34351 11.2093C2.23266 9.00471 3.53696 7.00162 5.18177 5.31463C6.82658 3.62765 8.7796 2.28991 10.9291 1.37796C13.0785 0.466009 15.3822 -0.00224053 17.7083 8.06015e-06Z" fill="#000B1D"/>
<path d="M82.2248 22.8093L67.934 15.9286C66.2798 15.1321 64.303 15.4681 63.0048 16.7663L16.2221 59.4211C14.9638 60.5683 14.9652 62.5495 16.2252 63.6949L20.0466 67.1689C21.0767 68.1054 22.6281 68.1743 23.7372 67.3329L80.0743 24.5943C81.9644 23.1605 84.6791 24.5086 84.6791 26.8809V26.715C84.6791 25.0498 83.7251 23.5317 82.2248 22.8093Z" fill="#0065A9"/>
<g filter="url(#filter0_d_38_197)">
<path d="M82.2248 77.1908L67.934 84.0715C66.2798 84.8681 64.303 84.532 63.0048 83.2338L16.2221 40.579C14.9638 39.4317 14.9652 37.4506 16.2252 36.3051L20.0466 32.8312C21.0767 31.8947 22.6281 31.8257 23.7372 32.6671L80.0743 75.4057C81.9644 76.8395 84.6791 75.4915 84.6791 73.1192V73.2851C84.6791 74.9503 83.7251 76.4683 82.2248 77.1908Z" fill="#007ACC"/>
</g>
<g filter="url(#filter1_d_38_197)">
<path d="M67.9347 84.0729C66.28 84.8689 64.3032 84.5322 63.0049 83.2338C64.6045 84.8335 67.3397 83.7005 67.3397 81.4383V18.5617C67.3397 16.2994 64.6045 15.1665 63.0049 16.7662C64.3032 15.4679 66.28 15.1314 67.9347 15.9272L82.223 22.7985C83.7244 23.5205 84.6791 25.0391 84.6791 26.705V73.2952C84.6791 74.9612 83.7244 76.4798 82.2229 77.2018L67.9347 84.0729Z" fill="#1F9CF0"/>
</g>
<g style="mix-blend-mode:overlay" opacity="0.25">
<path style="mix-blend-mode:overlay" fill-rule="evenodd" clip-rule="evenodd" d="M64.4621 84.2052C65.5545 84.6307 66.8001 84.6034 67.9026 84.0729L82.1822 77.2018C83.6827 76.4798 84.6369 74.9612 84.6369 73.2952V26.7051C84.6369 25.039 83.6827 23.5204 82.1823 22.7984L67.9026 15.9272C66.4557 15.2309 64.7622 15.4014 63.4922 16.3247C63.3108 16.4566 63.138 16.6039 62.9758 16.7661L35.6393 41.7058L23.732 32.6672C22.6236 31.8258 21.0732 31.8948 20.0437 32.8312L16.2247 36.3052C14.9654 37.4507 14.964 39.4318 16.2215 40.5791L26.5479 50L16.2215 59.421C14.964 60.5683 14.9654 62.5494 16.2247 63.6948L20.0437 67.1688C21.0732 68.1052 22.6236 68.1742 23.732 67.3328L35.6393 58.2942L62.9758 83.2339C63.4083 83.6665 63.916 83.9924 64.4621 84.2052ZM67.308 34.2551L46.5659 50L67.308 65.745V34.2551Z" fill="url(#paint0_linear_38_197)"/>
</g>
<defs>
<filter id="filter0_d_38_197" x="11.1126" y="27.9129" width="77.7332" height="60.7533" filterUnits="userSpaceOnUse" color-interpolation-filters="sRGB">
<feFlood flood-opacity="0" result="BackgroundImageFix"/>
<feColorMatrix in="SourceAlpha" type="matrix" values="0 0 0 0 0 0 0 0 0 0 0 0 0 0 0 0 0 0 127 0" result="hardAlpha"/>
<feOffset/>
<feGaussianBlur stdDeviation="2.08333"/>
<feColorMatrix type="matrix" values="0 0 0 0 0 0 0 0 0 0 0 0 0 0 0 0 0 0 0.25 0"/>
<feBlend mode="overlay" in2="BackgroundImageFix" result="effect1_dropShadow_38_197"/>
<feBlend mode="normal" in="SourceGraphic" in2="effect1_dropShadow_38_197" result="shape"/>
</filter>
<filter id="filter1_d_38_197" x="58.8382" y="11.3333" width="30.0077" height="77.3336" filterUnits="userSpaceOnUse" color-interpolation-filters="sRGB">
<feFlood flood-opacity="0" result="BackgroundImageFix"/>
<feColorMatrix in="SourceAlpha" type="matrix" values="0 0 0 0 0 0 0 0 0 0 0 0 0 0 0 0 0 0 127 0" result="hardAlpha"/>
<feOffset/>
<feGaussianBlur stdDeviation="2.08333"/>
<feColorMatrix type="matrix" values="0 0 0 0 0 0 0 0 0 0 0 0 0 0 0 0 0 0 0.25 0"/>
<feBlend mode="overlay" in2="BackgroundImageFix" result="effect1_dropShadow_38_197"/>
<feBlend mode="normal" in="SourceGraphic" in2="effect1_dropShadow_38_197" result="shape"/>
</filter>
<linearGradient id="paint0_linear_38_197" x1="49.9581" y1="15.5" x2="49.9581" y2="84.5001" gradientUnits="userSpaceOnUse">
<stop stop-color="white"/>
<stop offset="1" stop-color="white" stop-opacity="0"/>
</linearGradient>
</defs>
</svg>
