<svg width="24" height="24" viewBox="0 0 24 24" fill="none" xmlns="http://www.w3.org/2000/svg">
<path d="M8.38438 2.4796L7.52398 2.7388C6.75787 2.96984 6.0737 3.41491 5.55201 4.02165C5.03031 4.62838 4.69279 5.37152 4.57918 6.1636C4.22278 8.6452 5.01958 11.5468 6.94078 14.8744C8.85718 18.1936 10.9668 20.332 13.2888 21.268C14.0348 21.5687 14.8516 21.6488 15.6419 21.4988C16.4321 21.3489 17.1627 20.9751 17.7468 20.422L18.3972 19.8052C18.8195 19.4055 19.0824 18.866 19.1369 18.2871C19.1914 17.7082 19.0339 17.1291 18.6936 16.6576L17.0664 14.4016C16.8464 14.097 16.5366 13.8689 16.1804 13.7493C15.8243 13.6296 15.4396 13.6244 15.0804 13.7344L12.6192 14.4868L12.5556 14.4988C12.2844 14.5384 11.658 13.9516 10.878 12.6004C10.062 11.1868 9.89398 10.36 10.1184 10.1464L11.37 8.9788C11.8272 8.55185 12.1395 7.99264 12.2633 7.37942C12.387 6.76619 12.3159 6.12963 12.06 5.5588L11.2656 3.7936C11.0267 3.26241 10.6028 2.83621 10.0729 2.59446C9.54305 2.3527 8.94213 2.31188 8.38438 2.4796ZM10.1736 4.2856L10.9656 6.0508C11.1193 6.39318 11.1621 6.77504 11.0881 7.14297C11.0141 7.5109 10.8269 7.84649 10.5528 8.1028L9.29758 9.2716C8.49358 10.0324 8.75998 11.3308 9.83998 13.2004C10.8552 14.9596 11.7816 15.8284 12.7776 15.6772L12.9264 15.646L15.432 14.8816C15.5517 14.8448 15.68 14.8464 15.7988 14.8863C15.9176 14.9261 16.021 15.0021 16.0944 15.1036L17.7216 17.3596C17.892 17.5953 17.9709 17.8849 17.9438 18.1746C17.9166 18.4642 17.7852 18.734 17.574 18.934L16.9224 19.5508C16.5052 19.9456 15.9834 20.2124 15.4191 20.3194C14.8547 20.4264 14.2715 20.3691 13.7388 20.1544C11.7012 19.3336 9.77518 17.3812 7.98118 14.2744C6.18238 11.1604 5.45398 8.512 5.76718 6.334C5.84825 5.76812 6.08932 5.23718 6.462 4.8037C6.83468 4.37021 7.32345 4.05224 7.87078 3.8872L8.73118 3.628C9.01013 3.54418 9.31004 3.56468 9.57499 3.68567C9.83994 3.80667 10.0518 4.0199 10.1712 4.2856" fill="white"/>
</svg>
