<svg width="20" height="20" viewBox="0 0 20 20" fill="none" xmlns="http://www.w3.org/2000/svg">
<path d="M6.987 2.06605L6.27 2.28205C5.63158 2.47458 5.06144 2.84548 4.62669 3.35109C4.19194 3.8567 3.91068 4.47598 3.816 5.13605C3.519 7.20405 4.183 9.62205 5.784 12.3951C7.381 15.161 9.139 16.943 11.074 17.723C11.6957 17.9736 12.3763 18.0404 13.0349 17.9154C13.6935 17.7904 14.3023 17.479 14.789 17.018L15.331 16.504C15.6829 16.171 15.902 15.7214 15.9474 15.239C15.9929 14.7565 15.8616 14.274 15.578 13.881L14.222 12.001C14.0387 11.7472 13.7805 11.5572 13.4837 11.4575C13.1869 11.3577 12.8664 11.3534 12.567 11.445L10.516 12.072L10.463 12.082C10.237 12.115 9.715 11.626 9.065 10.5C8.385 9.32205 8.245 8.63305 8.432 8.45505L9.475 7.48205C9.85603 7.12626 10.1163 6.66025 10.2194 6.14923C10.3225 5.63821 10.2633 5.10774 10.05 4.63205L9.388 3.16105C9.18894 2.71839 8.8357 2.36323 8.39413 2.16176C7.95256 1.9603 7.4518 1.92628 6.987 2.06605ZM8.478 3.57105L9.138 5.04205C9.26608 5.32737 9.30178 5.64558 9.2401 5.95219C9.17842 6.2588 9.02245 6.53846 8.794 6.75205L7.748 7.72605C7.078 8.36005 7.3 9.44205 8.2 11C9.046 12.466 9.818 13.1901 10.648 13.064L10.772 13.038L12.86 12.401C12.9598 12.3704 13.0667 12.3717 13.1657 12.4049C13.2647 12.4381 13.3508 12.5014 13.412 12.5861L14.768 14.466C14.91 14.6625 14.9758 14.9038 14.9532 15.1452C14.9305 15.3865 14.821 15.6114 14.645 15.778L14.102 16.292C13.7543 16.6211 13.3195 16.8434 12.8493 16.9325C12.379 17.0217 11.893 16.974 11.449 16.795C9.751 16.111 8.146 14.484 6.651 11.8951C5.152 9.30005 4.545 7.09305 4.806 5.27805C4.87356 4.80648 5.07445 4.36403 5.38502 4.00279C5.69559 3.64156 6.1029 3.37658 6.559 3.23905L7.276 3.02305C7.50846 2.9532 7.75839 2.97028 7.97918 3.07111C8.19997 3.17194 8.37656 3.34963 8.476 3.57105" fill="#121212"/>
</svg>
