<svg width="108" height="106" viewBox="0 0 108 106" fill="none" xmlns="http://www.w3.org/2000/svg">
<g clip-path="url(#clip0_38_149)" filter="url(#filter0_d_38_149)">
<path d="M21.7083 7.85865e-06H86.2917C88.6178 -0.00218452 90.9215 0.454359 93.071 1.34351C95.2204 2.23266 97.1734 3.53696 98.8183 5.18177C100.463 6.82658 101.767 8.7796 102.657 10.9291C103.546 13.0785 104.002 15.3822 104 17.7083V79.7917C104.002 82.1178 103.546 84.4215 102.657 86.571C101.767 88.7204 100.463 90.6734 98.8183 92.3183C97.1734 93.9631 95.2204 95.2674 93.071 96.1565C90.9215 97.0457 88.6178 97.5022 86.2917 97.5H21.7083C19.3822 97.5022 17.0785 97.0457 14.9291 96.1565C12.7796 95.2674 10.8266 93.9631 9.18177 92.3183C7.53696 90.6734 6.23266 88.7204 5.34351 86.571C4.45436 84.4215 3.99782 82.1178 4.00001 79.7917V17.7083C3.99782 15.3822 4.45436 13.0785 5.34351 10.9291C6.23266 8.7796 7.53696 6.82658 9.18177 5.18177C10.8266 3.53696 12.7796 2.23266 14.9291 1.34351C17.0785 0.454359 19.3822 -0.00218452 21.7083 7.85865e-06Z" fill="#001E36"/>
<path d="M26.5 68.3751V25.5001C26.5 25.2084 26.625 25.0417 26.9167 25.0417C27.625 25.0417 28.2917 25.0417 29.25 25.0001C30.2083 24.9584 31.2917 24.9584 32.4167 24.9167C33.5417 24.8751 34.75 24.8751 36.0417 24.8334C37.3333 24.7917 38.5833 24.7917 39.8333 24.7917C43.25 24.7917 46.0833 25.2084 48.4167 26.0834C50.5083 26.7937 52.4156 27.9609 54 29.5001C55.3426 30.8471 56.38 32.467 57.0417 34.2501C57.6724 35.9865 57.9967 37.8193 58 39.6667C58 43.2501 57.1667 46.2084 55.5 48.5417C53.8256 50.8719 51.4878 52.6434 48.7917 53.6251C45.9583 54.6667 42.8333 55.0417 39.4167 55.0417C38.4167 55.0417 37.75 55.0417 37.3333 55.0001C36.9167 54.9584 36.3333 54.9584 35.5417 54.9584V68.3334C35.551 68.402 35.5464 68.4717 35.5282 68.5385C35.5101 68.6052 35.4787 68.6677 35.436 68.7221C35.3932 68.7765 35.34 68.8217 35.2794 68.8552C35.2188 68.8886 35.1521 68.9096 35.0833 68.9167H27C26.6667 68.9167 26.5 68.7501 26.5 68.3751ZM35.5833 33.0834V47.0834C36.1667 47.1251 36.7083 47.1667 37.2083 47.1667H39.4167C41.0433 47.1687 42.6601 46.9156 44.2083 46.4167C45.5366 46.0261 46.7233 45.2591 47.625 44.2084C48.5 43.1667 48.9167 41.7501 48.9167 39.9167C48.9559 38.6147 48.6235 37.3284 47.9583 36.2084C47.2636 35.1266 46.2418 34.2946 45.0417 33.8334C43.4774 33.2208 41.8037 32.9371 40.125 33.0001C39.0417 33.0001 38.0833 33.0001 37.2917 33.0417C36.7221 33.0045 36.1504 33.0185 35.5833 33.0834Z" fill="#31A8FF"/>
<path d="M84 44.5417C82.742 43.8791 81.3947 43.4019 80 43.125C78.4683 42.7781 76.9038 42.5965 75.3333 42.5833C74.4901 42.5543 73.6473 42.6526 72.8333 42.875C72.3143 42.983 71.854 43.28 71.5417 43.7083C71.3312 44.0464 71.216 44.4351 71.2083 44.8333C71.2277 45.2297 71.3738 45.6095 71.625 45.9167C72.0199 46.3799 72.5011 46.7619 73.0417 47.0417C74 47.5417 75 48 76 48.4167C78.2511 49.1745 80.4049 50.1955 82.4167 51.4583C83.785 52.3187 84.9165 53.5075 85.7083 54.9167C86.3779 56.2459 86.7072 57.7205 86.6667 59.2083C86.7005 61.1777 86.1337 63.1107 85.0417 64.75C83.8795 66.4133 82.2578 67.7019 80.375 68.4583C78.3333 69.3333 75.8333 69.7917 72.8333 69.7917C70.9312 69.7993 69.033 69.6179 67.1667 69.25C65.6971 68.9961 64.2679 68.5477 62.9167 67.9167C62.7714 67.8438 62.6506 67.73 62.5692 67.5893C62.4877 67.4487 62.4492 67.2873 62.4583 67.125V59.875C62.4547 59.8038 62.468 59.7327 62.4969 59.6676C62.5259 59.6025 62.5697 59.545 62.625 59.5C62.6837 59.4658 62.7519 59.4514 62.8194 59.4589C62.8869 59.4664 62.9502 59.4954 63 59.5417C64.605 60.4879 66.3484 61.1768 68.1667 61.5833C69.7721 62.0011 71.4245 62.2111 73.0833 62.2083C74.6667 62.2083 75.7917 62 76.5417 61.625C76.8762 61.4705 77.1597 61.2238 77.359 60.9138C77.5582 60.6038 77.665 60.2435 77.6667 59.875C77.6667 59.2917 77.3333 58.75 76.6667 58.2083C76 57.6667 74.625 57.0417 72.5833 56.25C70.4889 55.512 68.4998 54.5034 66.6667 53.25C65.361 52.3194 64.2793 51.1095 63.5 49.7083C62.8351 48.3923 62.5058 46.9323 62.5417 45.4583C62.5478 43.6804 63.0375 41.9376 63.9583 40.4167C65.0168 38.744 66.5361 37.4128 68.3333 36.5833C70.2917 35.5833 72.75 35.125 75.7083 35.125C77.4374 35.1255 79.1641 35.2508 80.875 35.5C82.1052 35.6665 83.3093 35.9885 84.4583 36.4583C84.6414 36.5232 84.7913 36.6581 84.875 36.8333C84.923 36.996 84.951 37.1639 84.9583 37.3333V44.125C84.959 44.206 84.9405 44.2859 84.9043 44.3584C84.868 44.4308 84.8152 44.4936 84.75 44.5417C84.5076 44.6288 84.2424 44.6288 84 44.5417Z" fill="#31A8FF"/>
</g>
<defs>
<filter id="filter0_d_38_149" x="0" y="0" width="108" height="105.5" filterUnits="userSpaceOnUse" color-interpolation-filters="sRGB">
<feFlood flood-opacity="0" result="BackgroundImageFix"/>
<feColorMatrix in="SourceAlpha" type="matrix" values="0 0 0 0 0 0 0 0 0 0 0 0 0 0 0 0 0 0 127 0" result="hardAlpha"/>
<feOffset dy="4"/>
<feGaussianBlur stdDeviation="2"/>
<feComposite in2="hardAlpha" operator="out"/>
<feColorMatrix type="matrix" values="0 0 0 0 0 0 0 0 0 0 0 0 0 0 0 0 0 0 0.25 0"/>
<feBlend mode="normal" in2="BackgroundImageFix" result="effect1_dropShadow_38_149"/>
<feBlend mode="normal" in="SourceGraphic" in2="effect1_dropShadow_38_149" result="shape"/>
</filter>
<clipPath id="clip0_38_149">
<rect width="100" height="97.5" fill="white" transform="translate(4)"/>
</clipPath>
</defs>
</svg>
