<svg width="92" height="89" viewBox="0 0 92 89" fill="none" xmlns="http://www.w3.org/2000/svg">
<path d="M38.8223 41.6484H41.3613V67.2832C41.3613 74.3145 37.3574 77.4883 32.084 77.4883C26.8105 77.4883 22.8555 74.3145 22.8555 69.627H25.3945C25.3945 72.8496 28.2754 75.1445 32.084 75.1445C35.8926 75.1445 38.7734 72.8984 38.8223 67.2832V41.6484Z" fill="white"/>
<path d="M50.9714 68.7148C47.905 68.7148 46.0105 66.5469 46.0105 63.2852C46.0105 60.0234 47.9246 57.7578 50.8152 57.7578C53.0417 57.7578 55.3855 59.125 55.3855 63.0508V63.7539H47.6902C47.7683 66 49.0769 67.2305 50.9714 67.2305C52.241 67.2305 53.0417 66.6836 53.4324 66.0195H55.2292C54.7214 67.6211 53.1589 68.7148 50.9714 68.7148ZM47.7097 62.3281H53.6863C53.6863 60.5508 52.5535 59.2422 50.8152 59.2422C48.9792 59.2422 47.8074 60.6875 47.7097 62.3281ZM61.9089 68.7148C59.0183 68.7148 57.0652 66.5469 57.0652 63.2461C57.0652 59.9453 59.0183 57.7578 61.9089 57.7578C64.78 57.7578 66.7136 59.9453 66.7136 63.2461C66.7136 66.5469 64.78 68.7148 61.9089 68.7148ZM61.9089 67.2305C64.0378 67.2305 65.0339 65.3555 65.0339 63.2461C65.0339 61.1367 64.0378 59.2422 61.9089 59.2422C59.741 59.2422 58.7449 61.1367 58.7449 63.2461C58.7449 65.3555 59.741 67.2305 61.9089 67.2305ZM70.6003 62.1328V68.5H68.9207V57.8945H70.5417V59.5547H70.6785C71.1863 58.4805 72.1628 57.7578 73.7839 57.7578C75.9324 57.7578 77.3582 59.0664 77.3582 61.7617V68.5H75.6785V61.8789C75.6785 60.2383 74.78 59.2617 73.2761 59.2617C71.7332 59.2617 70.6003 60.2969 70.6003 62.1328ZM84.3503 72.6992C81.7917 72.6992 80.0535 71.5859 79.8582 69.6133H81.616C81.8503 70.6875 82.8464 71.2344 84.3503 71.2344C86.1667 71.2344 87.28 70.4531 87.28 68.6953V66.5469H87.1433C86.7917 67.1328 86.1082 68.3438 84.0574 68.3438C81.4792 68.3438 79.5457 66.3906 79.5457 63.0508C79.5457 59.7891 81.4207 57.7578 84.0769 57.7578C86.1277 57.7578 86.7917 59.0078 87.1824 59.5742H87.3191V57.8945H88.9597V68.793C88.9597 71.5273 86.9285 72.6992 84.3503 72.6992ZM84.2917 66.8398C86.2253 66.8398 87.3191 65.4531 87.3191 63.1094C87.3191 60.8438 86.2644 59.2617 84.2917 59.2617C82.2605 59.2617 81.2449 60.9805 81.2449 63.1094C81.2449 65.3164 82.28 66.8398 84.2917 66.8398Z" fill="white"/>
<path d="M29.1016 23.7324C28.1738 18.9473 23.9746 14.5527 17.8711 14.5527C10.9863 14.5527 5.27344 20.168 5.27344 30.3242C5.27344 40.5781 10.9863 46.0469 17.8711 46.0469C23.9746 46.0469 28.1738 41.75 29.1016 36.916H31.6895C30.6641 42.873 25.6836 48.4883 17.8711 48.4883C8.98438 48.4883 2.7832 41.3105 2.7832 30.3242C2.7832 19.3379 8.98438 12.1602 17.8711 12.1602C25.6836 12.1602 30.6641 17.6777 31.6895 23.7324H29.1016ZM38.8184 48V12.6484H41.3574V29.1523H62.207V12.6484H64.7949V48H62.207V31.4473H41.3574V48H38.8184Z" fill="white"/>
</svg>
